<svg width="646" height="645" viewBox="0 0 646 645" fill="none" xmlns="http://www.w3.org/2000/svg">
<path d="M174.052 407.208C176.262 403.684 174.787 400.257 173.854 396.499C171.637 387.667 169.233 378.904 166.946 370.091L160.046 343.719C158.396 337.351 157.575 328.888 154.003 323.313C153.292 322.131 152.222 321.207 150.948 320.677C149.674 320.147 148.264 320.039 146.924 320.368L146.228 320.61C144.909 321.004 143.748 321.803 142.908 322.894C142.068 323.985 141.592 325.312 141.548 326.688L141.545 327.301C141.477 328.384 141.726 329.464 142.262 330.408C142.799 331.352 143.599 332.119 144.565 332.615C146.227 337.086 146.887 342.736 147.972 346.991L153.143 366.776L157.643 384.329C158.069 385.922 161.932 397.43 162.913 400.191C162.105 401.386 161.739 402.825 161.876 404.261C162.014 405.697 162.647 407.04 163.667 408.06L164.15 408.339C164.836 409 165.659 409.501 166.561 409.806C167.463 410.111 168.422 410.213 169.368 410.105C170.314 409.997 171.224 409.681 172.034 409.18C172.844 408.679 173.533 408.006 174.052 407.208V407.208Z" fill="#48D3E9"/>
<path d="M8.65615 411.225C32.743 410.059 56.8973 409.283 80.9547 407.661C87.5033 407.206 93.9954 406.143 100.347 404.487V404.487C91.1442 415.358 82.0566 423.545 68.1758 427.97C66.5793 428.43 65.2273 429.498 64.411 430.946C63.5948 432.393 63.3796 434.103 63.812 435.707C64.2443 437.312 65.2894 438.682 66.7223 439.523C68.1552 440.364 69.8611 440.609 71.4727 440.204C87.0115 436.913 102.489 433.322 117.845 429.282C129.705 426.178 141.258 424.214 149.075 414.123C152.035 410.213 147.939 404.482 143.537 404.604C138.27 404.753 133.032 404.802 127.767 404.748C128.261 403.892 128.874 403.133 129.39 402.29C130 401.325 130.307 400.199 130.272 399.058C130.238 397.917 129.863 396.812 129.196 395.885C129.186 395.155 129.061 394.431 128.825 393.739C130.744 392.799 132.684 391.87 134.641 390.864C140.366 387.994 137.665 378.883 131.468 379.022C120.239 379.31 109.031 379.258 97.8426 378.866C107.182 375.839 116.047 371.508 124.176 366.003C125.35 365.255 126.248 364.143 126.732 362.838C127.216 361.532 127.261 360.104 126.858 358.771C127.212 357.924 127.392 357.014 127.388 356.096C127.384 355.178 127.196 354.27 126.834 353.425C126.473 352.581 125.947 351.818 125.285 351.181C124.624 350.543 123.842 350.045 122.985 349.716C115.769 346.854 108.326 344.603 100.734 342.986C104.021 341.957 107.146 341.157 110.341 340.338C111.901 340.273 113.385 340.135 115.055 340.133C116.643 340.075 118.155 339.439 119.307 338.344C120.339 338.179 121.349 338.001 122.478 337.921C130.455 336.878 130.424 324.158 122.421 325.245C121.059 325.424 119.706 325.638 118.41 325.856C117.645 325.211 116.746 324.743 115.779 324.487C114.811 324.23 113.799 324.192 112.815 324.374C111.831 324.556 110.9 324.954 110.088 325.539C109.276 326.125 108.604 326.883 108.121 327.759C87.1077 328.689 66.2512 331.834 45.8976 337.14C38.5828 339.063 40.6763 349.022 47.5022 349.568L47.612 349.632C48.2989 349.906 49.0252 350.068 49.7634 350.113L54.5974 350.358C65.7587 351.651 76.82 353.696 87.7061 356.478C58.161 365.527 31.3983 382.327 5.37017 399.377C0.495247 402.65 1.93632 411.56 8.65615 411.225Z" fill="#48D3E9"/>
<path d="M375.94 355.951C376.445 356.242 377.008 356.333 377.541 356.524L378.489 356.808C383.818 358.879 389.455 360.046 395.168 360.262C395.564 361.462 396.345 362.498 397.391 363.208C398.437 363.918 399.689 364.262 400.951 364.186C406.159 363.681 415.56 361.44 419.325 364.551C421.78 366.583 421.639 370.072 425.139 371.917C433.557 376.397 437.731 368.154 441.292 361.986C441.966 360.777 442.233 359.384 442.056 358.012C441.879 356.641 441.266 355.362 440.308 354.364L439.813 353.903C443.438 352.428 446.837 350.449 449.909 348.025C467.317 334.398 476.309 307.367 473.428 285.187C475.275 284.663 477.085 284.017 478.847 283.252C479.834 282.71 480.654 281.908 481.217 280.933C481.78 279.958 482.065 278.847 482.041 277.721C481.833 272.649 479.714 267.844 476.11 264.27C472.506 260.696 467.683 258.619 462.61 258.454C461.867 258.418 461.125 258.535 460.429 258.798C459.733 259.061 459.099 259.464 458.566 259.983C458.423 259.54 458.24 259.11 458.018 258.701C457.271 257.363 456.426 256.083 455.489 254.87C449.587 246.513 441.579 239.867 432.277 235.607C422.975 231.347 412.712 229.625 402.529 230.615C402.443 227.926 401.713 225.296 400.401 222.947C399.539 221.517 398.16 220.474 396.549 220.035C394.939 219.596 393.221 219.794 391.753 220.589L377.894 226.547C377.289 226.806 376.726 227.151 376.22 227.571C375.309 227.029 374.261 226.761 373.202 226.798C372.143 226.835 371.116 227.176 370.246 227.78C354.369 237.638 344.319 252.41 337.728 269.706C334.069 278.496 331.43 287.676 329.863 297.066C329.417 299.942 329.364 302.865 329.705 305.755C330.189 309.225 332.745 313.364 332.571 317.215L331.854 318C331.17 318.692 330.653 319.53 330.341 320.451C330.029 321.372 329.931 322.352 330.054 323.316C330.176 324.281 330.517 325.205 331.049 326.019C331.581 326.832 332.292 327.514 333.127 328.013L339.052 331.639C340.262 332.308 341.654 332.574 343.025 332.396C344.396 332.219 345.674 331.609 346.674 330.654C353.703 339.524 362.592 346.744 372.714 351.806C372.822 352.725 373.18 353.598 373.749 354.329C374.317 355.059 375.075 355.621 375.94 355.951ZM429.181 254.256C429.779 254.342 430.386 254.348 430.986 254.273C437.722 258.346 443.231 264.166 446.928 271.117C447.358 271.914 447.956 272.608 448.68 273.152C452.199 283.379 454.246 293.926 450.992 304.632C447.737 315.338 441.136 324.287 434.211 332.786C427.042 335.684 419.638 337.96 412.079 339.588C410.747 339.86 409.561 340.613 408.75 341.705C404.62 340.696 400.563 339.612 396.81 338.762C390.243 337.494 383.825 335.544 377.662 332.946C377.135 332.02 376.341 331.276 375.383 330.81C371.759 329.06 368.397 326.814 365.393 324.136C367.889 320.777 366.973 314.658 362.162 314.017L362.031 313.941C361.434 311.805 360.186 309.909 358.461 308.515C358.653 305.699 358.7 303.033 359.029 300.384C359.388 299.657 359.605 298.869 359.668 298.06C360.009 293.516 360.428 288.988 360.86 284.437C364.907 274.893 370.873 266.284 378.39 259.145C379.451 258.118 380.659 257.089 381.937 256.042L390.222 253.859C395.973 252.542 401.799 251.576 407.667 250.966L429.181 254.256ZM378.358 237.352C378.763 237.57 379.184 237.755 379.619 237.904C375.55 240.142 371.671 242.708 368.019 245.577C370.691 243.07 373.602 240.829 376.71 238.888C377.344 238.475 377.901 237.955 378.358 237.352V237.352Z" fill="#48D3E9"/>
<path d="M385.649 299.392C400.822 298.728 416.001 298.712 431.187 299.343C439.331 299.685 439.253 286.996 431.108 286.655C415.887 285.983 400.715 286.004 385.592 286.716C377.464 287.057 377.464 299.73 385.649 299.392Z" fill="#48D3E9"/>
<path d="M396.959 318.887C404.344 318.937 411.711 318.682 419.057 318.124C427.146 317.497 427.146 304.824 419 305.448C411.625 305.989 404.258 306.244 396.902 306.211C388.675 306.114 388.798 318.829 396.959 318.887Z" fill="#48D3E9"/>
<path d="M238.383 370.098C249.186 367.76 260.787 366.322 271.286 362.989C273.325 362.559 275.227 361.633 276.822 360.292C278.418 358.952 279.659 357.239 280.434 355.305C281.557 356.259 283.003 356.748 284.474 356.672C287.295 356.603 305.18 355.836 308.321 357.24C308.499 357.541 308.71 357.82 308.952 358.073C309.21 359.053 309.733 359.942 310.465 360.643C311.196 361.344 312.107 361.83 313.097 362.046C316.551 365.725 318.758 370.399 319.404 375.404C319.484 377.052 320.182 378.608 321.358 379.765C322.534 380.921 324.103 381.592 325.751 381.645C327.429 381.625 329.031 380.944 330.208 379.749C331.386 378.554 332.044 376.943 332.039 375.265C331.114 365.641 326.557 356.731 319.295 350.347C317.99 348.74 316.373 347.413 314.542 346.447C312.711 345.48 310.704 344.894 308.641 344.723C300.611 343.781 292.516 343.523 284.443 343.952C283.28 343.994 282.151 344.354 281.178 344.993C279.881 334.06 273.36 320.871 264.421 317.495C255.483 314.12 243.637 319.075 233.308 324.292C227.504 325.829 221.697 327.422 215.996 328.931C212.146 329.85 208.446 331.31 205.005 333.267C201.179 331.936 196.389 333.795 196.806 338.953C197.352 345.56 198.396 354.651 201.924 361.517C201.43 362.737 201.299 364.073 201.546 365.366C204.582 383.07 227.12 372.522 238.383 370.098ZM266.887 350.586C267.467 350.189 268.047 349.792 268.583 349.37C268.468 350.533 267.595 351.082 266.302 351.243L266.887 350.586ZM216.724 341.409C216.654 341.777 216.624 342.152 216.634 342.527C215.671 342.674 214.721 342.799 213.781 342.958L213.447 343.029C214.502 342.388 215.606 341.832 216.749 341.365L216.724 341.409Z" fill="#48D3E9"/>
<path d="M206.414 491.42C206.718 491.45 207.023 491.48 207.315 491.531C211.498 493.787 216.404 494.293 220.96 492.941C237.153 494.012 253.416 492.68 269.219 488.99C281.64 488.259 294.058 487.029 306.471 485.298C307.439 485.177 308.356 484.796 309.126 484.197C333.166 488.218 357.696 488.348 381.778 484.584C383.291 484.193 384.6 483.243 385.441 481.927C386.283 480.61 386.595 479.024 386.315 477.486C389.536 476.27 392.687 474.874 395.752 473.306C396.6 472.915 397.34 472.322 397.908 471.581C398.476 470.839 398.854 469.971 399.011 469.05C399.168 468.129 399.099 467.184 398.809 466.296C398.519 465.409 398.017 464.605 397.347 463.954C398.657 462.359 399.558 460.468 399.971 458.445L400.947 458.277C407.252 457.088 406.542 449.244 402.008 446.656C403.184 445.668 404.104 444.41 404.689 442.99C405.275 441.57 405.508 440.03 405.37 438.5C405.354 437.533 405.119 436.582 404.683 435.72C404.246 434.857 403.62 434.105 402.85 433.519C402.08 432.934 401.188 432.531 400.24 432.341C399.292 432.151 398.313 432.179 397.377 432.422C387.234 436.062 376.708 438.527 366.004 439.771C365.133 438.862 363.968 438.293 362.716 438.165C362.176 438.087 361.645 438.044 361.092 437.988C340.368 435.285 319.413 434.834 298.592 436.644C296.981 436.743 295.462 437.427 294.321 438.568C277.14 436.256 259.849 434.85 242.52 434.357C239.656 433.93 236.751 433.855 233.869 434.133C232.672 434.239 231.524 434.655 230.537 435.341C223.585 433.972 216.748 432.07 210.087 429.651C205.997 428.168 201.646 432.563 202.109 436.576C197.3 437.048 194.019 443.846 198.159 447.32C198.489 447.51 198.796 447.687 199.036 448.031L198.631 448.733C197.775 449.053 196.998 449.554 196.353 450.202C195.709 450.85 195.212 451.63 194.897 452.488C194.583 453.346 194.457 454.262 194.53 455.173C194.602 456.085 194.871 456.969 195.318 457.767C196.281 459.119 197.343 460.397 198.495 461.591C195.104 467.009 190.875 472.001 193.575 479.237C194.269 481.188 195.41 482.949 196.908 484.378C198.406 485.807 200.219 486.864 202.2 487.466C202.455 488.456 202.987 489.354 203.733 490.054C204.479 490.754 205.409 491.228 206.414 491.42V491.42Z" fill="#48D3E9"/>
<path d="M219.146 319.013C216.558 314.355 214.692 309.331 213.613 304.112C212.762 300.932 212.621 297.603 213.203 294.362C213.784 291.121 215.072 288.048 216.976 285.362C218.245 285.592 219.555 285.428 220.728 284.891C221.901 284.355 222.882 283.471 223.538 282.36C224.323 280.989 224.671 279.409 224.534 277.834C224.398 276.259 223.783 274.764 222.772 273.548C223.468 270.903 223.462 268.123 222.754 265.482C222.046 262.84 220.661 260.429 218.737 258.487C243.598 244.978 269.224 232.935 294.927 221.113C316.38 211.227 337.73 201.925 360.347 195.549C376.098 194.019 391.959 193.313 407.844 193.324C445.215 193.33 485.773 193.392 520.161 210.172C521.412 210.815 522.842 211.022 524.224 210.759C525.606 210.496 526.86 209.779 527.788 208.722C529.544 213.336 531.256 217.924 533.046 222.528C516.05 210.55 495.45 205.271 474.38 203.291C444.874 200.562 415.154 201.205 385.794 205.207C377.684 206.378 381.032 218.525 389.056 217.451C414.295 214.249 439.786 213.528 465.165 215.297C491.529 216.88 518.026 222.285 536.73 242.304C537.395 243.048 538.235 243.614 539.175 243.949C541.667 257.471 545.442 270.725 550.449 283.53C551.148 285.309 551.908 287.035 552.676 288.796C553.86 296.381 555.758 303.837 558.346 311.064C558.677 312.001 559.219 312.849 559.929 313.543C560.639 314.237 561.5 314.759 562.444 315.069C564.029 324.032 563.277 332.583 567.455 341.112C569.77 345.873 575.836 344.693 578.446 341.136C580.1 338.874 581.555 336.473 582.794 333.959C583.926 333.706 584.976 333.172 585.847 332.407C586.718 331.641 587.383 330.67 587.781 329.58L591.408 320.611C594.429 315.683 597.31 310.693 600.051 305.641C605.31 301.848 609.494 296.755 612.195 290.86C614.895 284.966 616.02 278.471 615.458 272.011L617.667 267.17C620.169 262.381 622.461 257.499 624.549 252.412C624.959 251.399 625.03 250.28 624.752 249.222C624.74 248.95 624.711 248.679 624.664 248.411C626.321 248.183 627.966 247.872 629.592 247.48C630.668 247.193 631.652 246.63 632.445 245.846C633.238 245.063 633.813 244.087 634.113 243.014C634.414 241.94 634.429 240.807 634.159 239.726C633.888 238.645 633.34 237.653 632.569 236.848C627.999 232.578 623.096 228.68 617.905 225.192C617.475 224.55 616.941 223.984 616.324 223.518C595.497 208.669 572.361 197.359 547.85 190.043C545.896 189.12 543.951 188.231 541.971 187.351C541.152 186.997 540.272 186.808 539.38 186.796C538.488 186.783 537.603 186.947 536.774 187.278C536.433 186.809 536.016 186.401 535.541 186.068C535.068 185.063 534.642 184.027 534.146 183.009C531.882 178.161 525.633 179.353 523.243 183.036C489.503 164.171 453.694 160.852 414.927 163.873C394.56 165.49 374.023 167.3 354.166 172.342C350.222 173.343 346.303 174.505 342.424 175.748C341.78 175.323 341.053 175.039 340.291 174.917C339.528 174.795 338.749 174.837 338.004 175.04C338.286 174.132 338.344 173.169 338.174 172.233C338.003 171.297 337.61 170.417 337.026 169.666C336.442 168.915 335.686 168.316 334.821 167.921C333.956 167.525 333.008 167.344 332.059 167.393C331.433 167.412 330.855 167.4 330.242 167.398C330.109 167.306 329.97 167.226 329.824 167.157C324.622 164.153 319.201 161.579 313.789 159.04C313.416 157.887 312.711 156.869 311.762 156.114C312.201 155.042 312.335 153.869 312.15 152.725C311.964 151.581 311.466 150.511 310.71 149.633C309.955 148.754 308.971 148.102 307.868 147.748C306.765 147.393 305.585 147.351 304.459 147.624C292.031 149.801 279.864 153.272 268.158 157.982C260.011 161.297 251.049 164.552 247.442 173.181C246.936 174.474 246.762 175.873 246.937 177.25L244.084 178.237C243.067 178.528 242.06 178.854 241.021 179.132C240.239 179.348 239.505 179.708 238.857 180.195C231.662 182.883 224.863 186.527 218.641 191.029C208.969 193.31 199.578 196.654 190.642 201C175.398 207.886 160.331 215.226 147.674 225.946C145.049 225.982 142.426 226.165 139.774 226.449L138.3 223.578C134.639 216.284 123.642 222.607 127.294 229.867C129.528 234.259 131.766 238.595 134.146 242.837C130.799 245.441 129.94 251.238 134.549 253.343C136.416 254.216 138.289 254.975 140.144 255.666C140.227 256.607 140.57 257.507 141.137 258.263C141.704 259.02 142.47 259.603 143.351 259.946C144.185 260.428 145.12 260.734 146.018 261.106C151.481 268.269 158.047 274.52 165.471 279.624C166.719 280.356 168.186 280.62 169.611 280.371C171.036 280.121 172.326 279.375 173.252 278.263C182.121 280.896 198.008 270.869 207.705 264.82C208.035 265.592 208.519 266.289 209.126 266.869C213.308 270.981 202.595 282.795 201.129 286.602C199.628 290.795 199.232 295.304 199.979 299.694C200.955 308.684 203.722 317.387 208.118 325.29C212.296 332.297 223.324 326.021 219.146 319.013ZM291.091 163.378L292.025 163.128C292.276 163.302 292.54 163.454 292.816 163.584C293.562 164.015 294.4 164.236 295.188 164.544L292.904 164.952C292.794 164.889 292.662 164.813 292.553 164.749C292.147 164.212 291.653 163.748 291.091 163.378ZM293.079 206.115C293.641 206.487 294.255 206.773 294.902 206.962C286.51 210.751 278.168 214.656 269.835 218.596C277.437 214.147 285.183 209.956 293.079 206.115Z" fill="#48D3E9"/>
<path d="M201.044 424.226C194.913 439.499 191.849 455.829 192.028 472.286C192.123 479.219 193.16 486.901 198.519 491.458C203.371 495.576 210.308 495.776 216.677 495.795C234.812 496.19 252.953 495.402 270.985 493.434C286.093 491.445 300.983 487.808 316.193 486.961C333.523 485.991 350.881 488.725 368.377 487.822C379.549 487.278 391.803 484.607 398.433 475.557C408.09 462.43 402.091 440.529 412.415 428.022C426.069 430.783 439.989 425.884 453.055 421.047L486.025 408.855C495.179 405.715 504.109 401.952 512.75 397.593C528.585 389.175 542.033 376.833 554.771 364.198C563.982 355.087 572.937 345.711 581.913 336.348C590.063 328.387 597.395 319.628 603.797 310.204C608.009 303.247 611.627 295.946 614.612 288.381C621.645 272.453 627.715 256.118 632.787 239.462C616.724 221.861 597.383 207.563 575.845 197.367C566.801 193.111 557.391 189.639 548.028 186.136C527.796 178.699 507.394 171.456 486.204 167.3C440.279 158.224 392.682 163.236 349.654 181.679L351.887 180.041C339.723 168.921 324.769 159.438 312.605 148.318C311.632 146.938 310.388 145.771 308.948 144.889C307.509 144.006 305.905 143.426 304.233 143.184C302.562 142.943 300.86 143.044 299.229 143.483C297.599 143.922 296.075 144.688 294.75 145.736C251.373 168.046 207.595 189.598 163.415 210.392C152.546 215.531 141.637 220.588 131.217 226.571C129.125 227.526 127.354 229.064 126.113 231C125.268 232.969 125.031 235.145 125.432 237.25C126.532 245.787 130.458 253.709 136.583 259.756C142.03 265.125 148.968 268.721 155.071 273.357C160.35 277.373 164.979 282.178 168.797 287.603C162.077 294.172 153.617 299.092 145.985 304.607C150.162 305.584 148.982 312.19 145.825 315.021C142.669 317.853 137.938 319.862 137.174 324.075C136.977 325.754 137.142 327.456 137.658 329.066C143.383 352.742 149.715 376.279 156.653 399.679C158.164 404.766 160.775 410.839 166.073 411.294C169.731 411.65 174.112 409.233 176.694 411.806C177.404 412.696 177.976 413.687 178.391 414.747C181.916 421.67 191.207 422.965 198.876 423.267C198.622 422.389 201.17 424.972 201.044 424.226Z" stroke="black" stroke-width="5" stroke-miterlimit="10"/>
<path d="M520.98 175.35C521.896 185.995 523.628 196.553 526.158 206.934C529.452 220.542 534.1 233.732 538.527 247C549.779 280.637 559.554 314.718 567.853 349.245L566.921 345.283" stroke="black" stroke-width="2" stroke-miterlimit="10"/>
<path d="M152.668 311.889C160.787 346.019 169.854 379.907 179.872 413.553" stroke="black" stroke-width="2" stroke-miterlimit="10"/>
<path d="M351.49 176.065C352.22 175.258 353.645 176.49 353.354 177.551C353.125 178.049 352.79 178.491 352.372 178.847C351.955 179.202 351.465 179.462 350.937 179.609C287.062 207.909 226.421 243.007 170.063 284.295" stroke="black" stroke-width="2" stroke-miterlimit="10"/>
<path d="M407.757 428.638C369.578 440.575 328.76 438.988 288.901 437.107C260.361 435.848 231.532 434.481 203.64 428.094" stroke="black" stroke-width="2" stroke-miterlimit="10"/>
<path d="M440.638 237.251C424.127 225.904 401.581 224.857 383.254 232.978C374.174 237.26 366.046 243.322 359.353 250.805C352.66 258.288 347.538 267.039 344.291 276.538C341.192 285.12 339.738 294.209 340.003 303.33C340.808 316.651 345.744 329.391 354.124 339.778C362.503 350.165 373.911 357.684 386.76 361.29C393.692 363.037 400.846 363.735 407.984 363.359C428.584 362.403 449.722 352.657 459.781 334.729C463.808 326.983 466.42 318.579 467.493 309.915C471.661 281.912 465.016 253.931 440.638 237.251Z" stroke="black" stroke-width="2" stroke-miterlimit="10"/>
<path d="M430.249 258.033C420.392 254.31 409.774 253.053 399.32 254.371C388.942 255.315 377.898 258.07 371.11 265.975C366.372 271.493 364.312 278.762 362.583 285.812C360.471 294.894 358.794 304.491 361.253 313.462C362.833 318.481 365.456 323.109 368.95 327.042C372.444 330.976 376.73 334.127 381.526 336.289C391.18 340.626 401.815 342.311 412.336 341.17C418.563 340.872 424.648 339.21 430.161 336.301C436.868 331.887 442.286 325.775 445.862 318.586C457.963 297.271 455.029 268.389 430.249 258.033Z" stroke="black" stroke-width="2" stroke-miterlimit="10"/>
<path d="M439.96 356.386C441.897 360.431 443.875 365.319 441.3 368.867C440.259 370.138 438.934 371.148 437.432 371.814C434.463 373.457 431.071 374.179 427.69 373.886C426.009 373.719 424.41 373.079 423.078 372.04C421.745 371.002 420.734 369.607 420.161 368.018C419.632 366.249 419.767 364.19 418.603 362.758" stroke="black" stroke-width="2" stroke-miterlimit="10"/>
<path d="M339.68 312.1C337.737 314.197 334.874 315.354 333.223 317.708C332.481 318.97 332.039 320.386 331.932 321.847C331.825 323.307 332.055 324.773 332.604 326.13C333.742 328.874 335.302 331.423 337.226 333.687C337.641 334.339 338.244 334.85 338.955 335.153C339.604 335.284 340.278 335.225 340.895 334.986C343.784 334.117 346.471 332.684 348.802 330.77" stroke="black" stroke-width="2" stroke-miterlimit="10"/>
<path d="M398.098 227.999C397.868 225.509 397.132 223.092 395.935 220.897C395.691 220.32 395.321 219.804 394.853 219.387C394.386 218.97 393.831 218.662 393.23 218.486C392.334 218.459 391.449 218.69 390.68 219.15C384.756 222.097 379.236 225.796 374.258 230.156C375.312 231.321 376.357 232.451 377.39 233.603" stroke="black" stroke-width="2" stroke-miterlimit="10"/>
<path d="M462.935 261.539L470.365 259.214C471.378 258.807 472.474 258.647 473.561 258.747C474.517 259.055 475.387 259.582 476.104 260.285C476.821 260.989 477.364 261.849 477.69 262.799C479.854 267.039 481.42 271.559 482.346 276.228C482.859 278.837 483.024 281.947 480.979 283.664C480.114 284.372 479.107 284.888 478.027 285.178L468.575 288.267" stroke="black" stroke-width="2" stroke-miterlimit="10"/>
<path d="M251.447 315.331C246.359 317.047 241.332 319.823 236.322 321.759C225.567 325.94 206.465 323.896 198.224 332.542C189.983 341.189 200.462 360.906 203.255 370.567C203.74 373.054 204.96 375.338 206.756 377.125C209.651 379.411 213.816 378.685 217.41 377.833C234.843 373.694 252.198 369.285 269.474 364.606C273.068 363.986 276.409 362.35 279.103 359.892C282.701 355.941 282.306 350.035 281.733 344.641C281.269 338.402 279.804 332.279 277.394 326.507C276.161 323.627 274.317 321.05 271.99 318.954C269.663 316.858 266.908 315.292 263.917 314.365C246.412 310.112 253.326 323.938 256.873 333.712C258.851 339.47 260.33 345.386 261.296 351.397L264.051 366.041" stroke="black" stroke-width="2" stroke-miterlimit="10"/>
<path d="M382.714 448.541C334.868 456.037 286.199 456.702 238.165 450.516" stroke="black" stroke-width="2" stroke-miterlimit="10"/>
<path d="M293.344 463.173C273.066 463.71 252.774 463.095 232.566 461.331" stroke="black" stroke-width="2" stroke-miterlimit="10"/>
<path d="M233.607 320.074L250.602 366.675" stroke="black" stroke-width="2" stroke-miterlimit="10"/>
<path d="M219.962 325.104C224.303 342.087 229.341 358.859 235.077 375.419C235.21 375.847 235.337 376.388 234.98 376.651C234.624 376.913 234.124 376.156 234.558 376.114" stroke="black" stroke-width="2" stroke-miterlimit="10"/>
<path d="M204.138 327.469C210.455 342.898 214.952 359.01 217.54 375.479" stroke="black" stroke-width="2" stroke-miterlimit="10"/>
<path d="M157.293 335.865L146.219 341.764" stroke="black" stroke-width="2" stroke-miterlimit="10"/>
<path d="M161.431 354.499C157.551 355.493 153.836 357.044 150.401 359.105" stroke="black" stroke-width="2" stroke-miterlimit="10"/>
<path d="M157.123 380.868L167.806 376.558C169.542 382.22 170.669 388.051 171.168 393.952C166.51 393.788 161.887 394.816 157.737 396.938" stroke="black" stroke-width="2" stroke-miterlimit="10"/>
<path d="M317.193 177.073C269.132 195.555 223.752 220.369 182.256 250.858" stroke="black" stroke-width="2" stroke-miterlimit="10"/>
<path d="M306.764 163.15C279.289 172.059 253.871 186.371 232.005 205.243" stroke="black" stroke-width="2" stroke-miterlimit="10"/>
<path d="M432.554 298.346C418.187 296.666 403.794 295.185 389.374 293.903" stroke="black" stroke-width="2" stroke-miterlimit="10"/>
<path d="M423.124 305.4C413.82 305.708 404.506 305.547 395.218 304.918" stroke="black" stroke-width="2" stroke-miterlimit="10"/>
<path d="M215.933 254.878C219.714 259.988 223.506 265.485 224.824 271.719C226.142 277.952 224.172 285.42 218.587 288.605C216.179 289.936 213.019 290.746 212.08 293.335C211.716 294.923 211.863 296.585 212.499 298.084L219.612 321.858" stroke="black" stroke-width="2" stroke-miterlimit="10"/>
<path d="M284.829 355.092L312.58 352.091C314.189 351.762 315.858 351.893 317.395 352.471C318.796 353.317 319.886 354.594 320.503 356.109C324.79 364.906 324.021 376.579 331.388 382.88C337.937 388.417 347.692 387.084 356.015 385.392C364.337 383.7 373.962 381.882 380.904 386.943C382.962 388.61 384.804 390.529 386.386 392.654C391.496 398.707 397.669 404.641 405.502 405.827C413.334 407.013 421.325 402.905 428.908 399.908C439.018 395.881 450.839 393.809 460.487 398.794C464.095 400.648 467.177 403.383 469.446 406.747C470.03 407.611 470.496 408.933 469.641 409.552C468.786 410.171 468.322 407.883 469.196 408.446" stroke="black" stroke-width="2" stroke-miterlimit="10"/>
<path d="M294.003 370.633L288.916 375.54" stroke="#231F20" stroke-width="2" stroke-miterlimit="10"/>
<path d="M306.718 399.25C307.242 401.432 308.45 403.391 310.164 404.839" stroke="#231F20" stroke-width="2" stroke-miterlimit="10"/>
<path d="M504.44 357.646L509.114 359.232" stroke="#231F20" stroke-width="2" stroke-miterlimit="10"/>
<path d="M511.736 302.475L514.509 299.598" stroke="#231F20" stroke-width="2" stroke-miterlimit="10"/>
<path d="M318.37 225.574C318.398 222.003 317.218 218.527 315.022 215.71" stroke="#231F20" stroke-width="2" stroke-miterlimit="10"/>
<path d="M292.965 263.647L293.67 271.956" stroke="#231F20" stroke-width="2" stroke-miterlimit="10"/>
<path d="M455.898 189.225C457.299 189.63 458.799 189.525 460.13 188.929C461.461 188.332 462.537 187.283 463.166 185.967C463.796 184.652 463.938 183.155 463.568 181.745C463.197 180.334 462.338 179.1 461.144 178.264" stroke="#231F20" stroke-width="2" stroke-miterlimit="10"/>
<path d="M176.723 224.397C175.842 223.887 174.867 223.56 173.857 223.434C172.847 223.309 171.821 223.387 170.842 223.665C169.863 223.943 168.949 224.415 168.156 225.053C167.362 225.69 166.705 226.481 166.222 227.377" stroke="#231F20" stroke-width="2" stroke-miterlimit="10"/>
<path d="M158.231 264.235L161.822 269.674" stroke="#231F20" stroke-width="2" stroke-miterlimit="10"/>
</svg>
